<svg width="25" height="24" viewBox="0 0 25 24" fill="none" xmlns="http://www.w3.org/2000/svg">
<circle cx="12.9375" cy="12" r="11.5" fill="white" stroke="#ECEFF8"/>
<g clip-path="url(#clip0_719_45274)">
<mask id="mask0_719_45274" style="mask-type:luminance" maskUnits="userSpaceOnUse" x="4" y="3" width="18" height="18">
<path d="M21.4375 3.5H4.4375V20.5H21.4375V3.5Z" fill="white"/>
</mask>
<g mask="url(#mask0_719_45274)">
<path d="M17.5738 3.5H8.30113C6.16731 3.5 4.4375 5.22981 4.4375 7.36363V16.6363C4.4375 18.7702 6.16731 20.5 8.30113 20.5H17.5738C19.7077 20.5 21.4375 18.7702 21.4375 16.6363V7.36363C21.4375 5.22981 19.7077 3.5 17.5738 3.5Z" fill="url(#paint0_linear_719_45274)"/>
<path d="M17.5738 3.5H8.30113C6.16731 3.5 4.4375 5.22981 4.4375 7.36363V16.6363C4.4375 18.7702 6.16731 20.5 8.30113 20.5H17.5738C19.7077 20.5 21.4375 18.7702 21.4375 16.6363V7.36363C21.4375 5.22981 19.7077 3.5 17.5738 3.5Z" fill="url(#paint1_radial_719_45274)"/>
<path d="M17.5738 3.5H8.30113C6.16731 3.5 4.4375 5.22981 4.4375 7.36363V16.6363C4.4375 18.7702 6.16731 20.5 8.30113 20.5H17.5738C19.7077 20.5 21.4375 18.7702 21.4375 16.6363V7.36363C21.4375 5.22981 19.7077 3.5 17.5738 3.5Z" fill="url(#paint2_radial_719_45274)"/>
<path d="M17.5738 3.5H8.30113C6.16731 3.5 4.4375 5.22981 4.4375 7.36363V16.6363C4.4375 18.7702 6.16731 20.5 8.30113 20.5H17.5738C19.7077 20.5 21.4375 18.7702 21.4375 16.6363V7.36363C21.4375 5.22981 19.7077 3.5 17.5738 3.5Z" fill="url(#paint3_radial_719_45274)"/>
</g>
<path d="M11.4227 16.5581V12.6148L15.2541 16.5581H17.3858V16.4555L12.9785 11.9644L17.0466 7.70363V7.65332H14.9012L11.4227 11.4185V7.65332H9.69531V16.5581H11.4227Z" fill="white"/>
</g>
<defs>
<linearGradient id="paint0_linear_719_45274" x1="12.9375" y1="3.5" x2="12.9375" y2="20.5" gradientUnits="userSpaceOnUse">
<stop stop-color="#1FD1FF"/>
<stop offset="1" stop-color="#1BB8FF"/>
</linearGradient>
<radialGradient id="paint1_radial_719_45274" cx="0" cy="0" r="1" gradientUnits="userSpaceOnUse" gradientTransform="translate(5.24954 19.8559) rotate(-45.1556) scale(27.2626 27.6705)">
<stop stop-color="#232DE3"/>
<stop offset="1" stop-color="#232DE3" stop-opacity="0"/>
</radialGradient>
<radialGradient id="paint2_radial_719_45274" cx="0" cy="0" r="1" gradientUnits="userSpaceOnUse" gradientTransform="translate(20.5219 20.4029) rotate(-138.45) scale(17.046 25.9904)">
<stop stop-color="#8B4DFF"/>
<stop offset="1" stop-color="#8B4DFF" stop-opacity="0"/>
</radialGradient>
<radialGradient id="paint3_radial_719_45274" cx="0" cy="0" r="1" gradientUnits="userSpaceOnUse" gradientTransform="translate(12.7959 3.62608) rotate(90) scale(13.4031 32.5195)">
<stop stop-color="#24D5FF"/>
<stop offset="1" stop-color="#1BB8FF" stop-opacity="0"/>
</radialGradient>
<clipPath id="clip0_719_45274">
<rect width="17" height="17" fill="white" transform="translate(4.4375 3.5)"/>
</clipPath>
</defs>
</svg>
