<svg width="36" height="36" viewBox="0 0 36 36" fill="none" xmlns="http://www.w3.org/2000/svg">
<path fill-rule="evenodd" clip-rule="evenodd" d="M3 17.9999C3 9.71573 9.71572 3 18 3C26.2842 3 33 9.71573 33 17.9999C33 26.2843 26.2842 32.9999 18 32.9999C9.71572 32.9999 3 26.2843 3 17.9999ZM15.75 12.0001C15.75 10.7574 16.7574 9.75009 18 9.75009H18.015C19.2576 9.75009 20.265 10.7574 20.265 12.0001V12.0151C20.265 13.2577 19.2576 14.2651 18.015 14.2651H18C16.7574 14.2651 15.75 13.2577 15.75 12.0151V12.0001ZM18 16.5001C18.8285 16.5001 19.5 17.1716 19.5 18.0001V24.0001C19.5 24.8285 18.8285 25.5001 18 25.5001C17.1715 25.5001 16.5 24.8285 16.5 24.0001V18.0001C16.5 17.1716 17.1715 16.5001 18 16.5001Z"/>
</svg>
